<svg width="640" height="460" viewBox="0 0 640 460" fill="none" xmlns="http://www.w3.org/2000/svg">
  <defs>
    <filter id="shadow" x="-20%" y="-20%" width="140%" height="150%" color-interpolation-filters="sRGB">
      <feDropShadow dx="0" dy="12" stdDeviation="16" flood-color="#1E3A2F" flood-opacity=".10"/>
      <feDropShadow dx="0" dy="2" stdDeviation="3" flood-color="#1E3A2F" flood-opacity=".08"/>
    </filter>
    <linearGradient id="bg" x1="0" x2="640" y1="0" y2="460">
      <stop stop-color="#D6F3DF"/>
      <stop offset=".5" stop-color="#F6FFF8"/>
      <stop offset="1" stop-color="#D2F1DE"/>
    </linearGradient>
  </defs>
  <rect width="640" height="460" rx="18" fill="url(#bg)"/>
  <g opacity=".75" filter="url(#shadow)">
    <rect x="92" y="36" width="410" height="56" rx="13" fill="#F4FFF6"/>
    <rect x="112" y="56" width="26" height="16" rx="5" fill="#39C18C"/>
    <text x="148" y="70" fill="#20A471" font-family="Geist, Inter, Arial, sans-serif" font-size="16" font-weight="500">sales-export-2026-06.pdf</text>
  </g>
  <rect x="40" y="96" width="520" height="62" rx="14" fill="white" filter="url(#shadow)"/>
  <text x="64" y="134" fill="#292633" font-family="Geist, Inter, Arial, sans-serif" font-size="22" font-weight="500" letter-spacing="-.55">Turn these sales into a report</text>
  <rect x="40" y="188" width="560" height="252" rx="16" fill="white" filter="url(#shadow)"/>
  <rect x="40" y="188" width="560" height="44" rx="16" fill="#F8FBF8"/>
  <rect x="70" y="205" width="128" height="10" rx="5" fill="#DDE8E0"/>
  <rect x="220" y="205" width="84" height="10" rx="5" fill="#EAF0EC"/>
  <rect x="70" y="262" width="500" height="1" fill="#E9EFEA"/>
  <rect x="70" y="304" width="500" height="1" fill="#E9EFEA"/>
  <rect x="70" y="346" width="500" height="1" fill="#E9EFEA"/>
  <rect x="70" y="388" width="500" height="1" fill="#E9EFEA"/>
  <rect x="82" y="244" width="62" height="11" rx="5.5" fill="#C9D6CE"/>
  <rect x="210" y="244" width="76" height="11" rx="5.5" fill="#C9D6CE"/>
  <rect x="388" y="244" width="82" height="11" rx="5.5" fill="#C9D6CE"/>
  <rect x="82" y="280" width="94" height="10" rx="5" fill="#E3EAE5"/>
  <rect x="210" y="280" width="124" height="10" rx="5" fill="#E3EAE5"/>
  <rect x="388" y="280" width="72" height="10" rx="5" fill="#BC9BFF"/>
  <rect x="82" y="322" width="116" height="10" rx="5" fill="#E3EAE5"/>
  <rect x="210" y="322" width="96" height="10" rx="5" fill="#E3EAE5"/>
  <rect x="388" y="322" width="104" height="10" rx="5" fill="#E3EAE5"/>
  <rect x="82" y="364" width="86" height="10" rx="5" fill="#E3EAE5"/>
  <rect x="210" y="364" width="144" height="10" rx="5" fill="#E3EAE5"/>
  <rect x="388" y="364" width="92" height="10" rx="5" fill="#E3EAE5"/>
  <path d="M488 394c-44-18-78-34-128-16-35 13-65 4-90-9" stroke="#BC9BFF" stroke-width="5" stroke-linecap="round"/>
</svg>
