<svg width="640" height="460" viewBox="0 0 640 460" fill="none" xmlns="http://www.w3.org/2000/svg">
  <defs>
    <filter id="shadow" x="-20%" y="-20%" width="140%" height="150%" color-interpolation-filters="sRGB">
      <feDropShadow dx="0" dy="12" stdDeviation="16" flood-color="#332536" flood-opacity=".10"/>
      <feDropShadow dx="0" dy="2" stdDeviation="3" flood-color="#332536" flood-opacity=".08"/>
    </filter>
    <linearGradient id="bg" x1="0" x2="640" y1="0" y2="460">
      <stop stop-color="#F8C9E0"/>
      <stop offset=".48" stop-color="#FFF5EF"/>
      <stop offset="1" stop-color="#FFD7D9"/>
    </linearGradient>
    <linearGradient id="violet" x1="0" x2="1" y1="0" y2="1">
      <stop stop-color="#D8C4FF"/>
      <stop offset="1" stop-color="#BC9BFF"/>
    </linearGradient>
  </defs>
  <rect width="640" height="460" rx="18" fill="url(#bg)"/>
  <rect x="44" y="72" width="390" height="60" rx="14" fill="white" filter="url(#shadow)"/>
  <text x="66" y="109" fill="#292633" font-family="Geist, Inter, Arial, sans-serif" font-size="23" font-weight="500" letter-spacing="-.6">Build a paid template shop</text>
  <rect x="154" y="154" width="380" height="270" rx="20" fill="white" filter="url(#shadow)"/>
  <rect x="154" y="154" width="380" height="46" rx="20" fill="#F7F6F8"/>
  <circle cx="181" cy="177" r="5" fill="#E6DFEF"/>
  <circle cx="198" cy="177" r="5" fill="#E6DFEF"/>
  <circle cx="215" cy="177" r="5" fill="#E6DFEF"/>
  <rect x="180" y="224" width="148" height="13" rx="6.5" fill="#DCD7E8"/>
  <rect x="180" y="251" width="278" height="12" rx="6" fill="#ECE9F0"/>
  <rect x="180" y="273" width="222" height="12" rx="6" fill="#ECE9F0"/>
  <rect x="180" y="319" width="132" height="84" rx="17" fill="#F4F0FF" stroke="#E2D8FF"/>
  <rect x="334" y="319" width="174" height="84" rx="17" fill="#FBFAFF" stroke="#E6E0F2"/>
  <rect x="198" y="340" width="82" height="10" rx="5" fill="#BC9BFF"/>
  <rect x="198" y="361" width="54" height="10" rx="5" fill="#DCD3F6"/>
  <rect x="356" y="340" width="112" height="10" rx="5" fill="#DCD3F6"/>
  <rect x="356" y="361" width="74" height="10" rx="5" fill="#ECE9F0"/>
  <rect x="424" y="276" width="48" height="48" rx="14" fill="url(#violet)" filter="url(#shadow)"/>
  <path d="M439 300h18M448 291v18" stroke="white" stroke-width="4" stroke-linecap="round"/>
  <path d="M500 106c25 20 44 52 42 82" stroke="white" stroke-opacity=".36" stroke-width="22" stroke-linecap="round"/>
</svg>
